# xmcd
#
# Track frame offsets: 
#        150
#        11606
#        23173
#        34260
#        46768
#        56475
#        66347
#        77001
#        87782
#        97879
#        108476
#        121087
#        132993
#        141740
#        154920
#        166958
#        180090
#        190363
#        201258
#        212571
#
# Disc length: 2995 seconds
#
# Revision: 0
# Processed by: cddbd v1.5.2PL0 Copyright (c) Steve Scherf et al.
# Submitted via: ExactAudioCopy v1.3
#
DISCID=0d0bb114
DTITLE=Various Artist - Rhythm and Blues Goes Rock 'N' Roll Vol.1 D6
DYEAR=1900
DGENRE=Blues
TTITLE0=Jewel King - 3 x 7 equals 21
TTITLE1=Oscar and Jeanette - Hey girl hey boy
TTITLE2=Gus - Seven to eleven
TTITLE3=Hearts - It's me
TTITLE4=H-Bomb Ferguson - Rock H-Bomb rock
TTITLE5=Bobby and Ron - You're mine
TTITLE6=Lula Reed - Sick and tired
TTITLE7=Sonny Walker - The undertaker
TTITLE8=Jackie Brenston - Much later
TTITLE9=Harmon Jones - Lookin' for my baby
TTITLE10=Crawfords - I ain't guilty
TTITLE11=Papa Joe - Looking for my baby
TTITLE12=Table Topper - Talk to me baby
TTITLE13=Mr Ruffin - Bring it on back
TTITLE14=J L John - Bloody tears
TTITLE15=Slim - A thing you gotta face
TTITLE16=Big Daddy - I think you're lying
TTITLE17=Sherman Evans - Yo yo
TTITLE18=Phil Flowers - Twisting beat
TTITLE19=Freddie Clark - Beggin' papa blues
EXTD=
EXTT0=
EXTT1=
EXTT2=
EXTT3=
EXTT4=
EXTT5=
EXTT6=
EXTT7=
EXTT8=
EXTT9=
EXTT10=
EXTT11=
EXTT12=
EXTT13=
EXTT14=
EXTT15=
EXTT16=
EXTT17=
EXTT18=
EXTT19=
PLAYORDER=
